# xmcd
#
# Track frame offsets:
# 150
# 19628
# 36566
# 53617
# 71076
# 90370
# 112936
# 137025
# 156412
# 176189
# 192422
# 206842
# 226562
#
# Disc length: 3271 seconds
#
# Revision: 1
# Processed by: cddbd v1.4PL0 Copyright (c) Steve Scherf et al.
# Submitted via: Axialis_AX_CDPlayer 2.6
#
DISCID=af0cc50d
DTITLE=Sonny Stitt - Complete Roost Studio Sessions - Disc 3
DYEAR=1957
DGENRE=Jazz
TTITLE0=What Is This Thing Called Love
TTITLE1=Sweet Georgia Brown
TTITLE2=Blues For Yard
TTITLE3=Harlem Nocturne
TTITLE4=Blue Moon
TTITLE5=Because Of You
TTITLE6=Windy Ride
TTITLE7=But Not For Me
TTITLE8=Scrapple From The Apple
TTITLE9=Sweet Georgia Brown (alt tk)
TTITLE10=Blues For Yard (alt tk 1)
TTITLE11=Blues For Yard (alt tk 2)
TTITLE12=Harlem Nocturne (alt tk)
EXTD=YEAR: 1957
EXTT0=
EXTT1=
EXTT2=
EXTT3=
EXTT4=
EXTT5=
EXTT6=
EXTT7=
EXTT8=
EXTT9=
EXTT10=
EXTT11=
EXTT12=
PLAYORDER=
